<mxfile host="app.diagrams.net" modified="2023-04-03T10:48:06.084Z" agent="Mozilla/5.0 (Windows NT 10.0; Win64; x64) AppleWebKit/537.36 (KHTML, like Gecko) Chrome/111.0.0.0 Safari/537.36" etag="Q1gdpRZp-UDM64p2kJuc" version="21.1.2" type="google">
  <diagram name="Сторінка-1" id="QSlwY11mU3Tw5X19oP1j">
    <mxGraphModel grid="1" page="1" gridSize="10" guides="1" tooltips="1" connect="1" arrows="1" fold="1" pageScale="1" pageWidth="827" pageHeight="1169" math="0" shadow="0">
      <root>
        <mxCell id="0" />
        <mxCell id="1" parent="0" />
        <mxCell id="Y3manjMWAyvu6e0yyUNT-3" style="edgeStyle=orthogonalEdgeStyle;rounded=0;orthogonalLoop=1;jettySize=auto;html=1;" edge="1" parent="1" source="t39Mr_szqTA4_jdOvEzW-3" target="Y3manjMWAyvu6e0yyUNT-2">
          <mxGeometry relative="1" as="geometry" />
        </mxCell>
        <mxCell id="t39Mr_szqTA4_jdOvEzW-3" value="Start&lt;br&gt;" style="ellipse;whiteSpace=wrap;html=1;aspect=fixed;" vertex="1" parent="1">
          <mxGeometry x="380" y="10" width="80" height="80" as="geometry" />
        </mxCell>
        <mxCell id="Y3manjMWAyvu6e0yyUNT-6" style="edgeStyle=orthogonalEdgeStyle;rounded=0;orthogonalLoop=1;jettySize=auto;html=1;" edge="1" parent="1" source="Y3manjMWAyvu6e0yyUNT-2" target="Y3manjMWAyvu6e0yyUNT-5">
          <mxGeometry relative="1" as="geometry" />
        </mxCell>
        <mxCell id="Y3manjMWAyvu6e0yyUNT-2" value="Користувач&amp;nbsp;&lt;br&gt;Авторизований&lt;br&gt;" style="ellipse;whiteSpace=wrap;html=1;" vertex="1" parent="1">
          <mxGeometry x="360" y="150" width="120" height="80" as="geometry" />
        </mxCell>
        <mxCell id="Y3manjMWAyvu6e0yyUNT-10" style="edgeStyle=orthogonalEdgeStyle;rounded=0;orthogonalLoop=1;jettySize=auto;html=1;" edge="1" parent="1" source="Y3manjMWAyvu6e0yyUNT-5" target="Y3manjMWAyvu6e0yyUNT-9">
          <mxGeometry relative="1" as="geometry" />
        </mxCell>
        <mxCell id="Y3manjMWAyvu6e0yyUNT-5" value="Користувач бачить перед собою список товарів" style="ellipse;whiteSpace=wrap;html=1;" vertex="1" parent="1">
          <mxGeometry x="360" y="290" width="120" height="80" as="geometry" />
        </mxCell>
        <mxCell id="Y3manjMWAyvu6e0yyUNT-8" value="Відкрити Каталог товарів&lt;br&gt;та обрати Компьютери" style="text;html=1;align=center;verticalAlign=middle;resizable=0;points=[];autosize=1;strokeColor=none;fillColor=none;" vertex="1" parent="1">
          <mxGeometry x="450" y="240" width="160" height="40" as="geometry" />
        </mxCell>
        <mxCell id="Y3manjMWAyvu6e0yyUNT-13" style="edgeStyle=orthogonalEdgeStyle;rounded=0;orthogonalLoop=1;jettySize=auto;html=1;" edge="1" parent="1" source="Y3manjMWAyvu6e0yyUNT-9">
          <mxGeometry relative="1" as="geometry">
            <mxPoint x="420" y="570" as="targetPoint" />
          </mxGeometry>
        </mxCell>
        <mxCell id="Y3manjMWAyvu6e0yyUNT-9" value="Відкривається сторінка з обраним товаром" style="ellipse;whiteSpace=wrap;html=1;" vertex="1" parent="1">
          <mxGeometry x="360" y="430" width="120" height="80" as="geometry" />
        </mxCell>
        <mxCell id="Y3manjMWAyvu6e0yyUNT-11" value="Обрати будь-який товар із існуючого списку&lt;br&gt;Натиснувши на нього" style="text;html=1;align=center;verticalAlign=middle;resizable=0;points=[];autosize=1;strokeColor=none;fillColor=none;" vertex="1" parent="1">
          <mxGeometry x="450" y="380" width="270" height="40" as="geometry" />
        </mxCell>
        <mxCell id="Y3manjMWAyvu6e0yyUNT-36" style="edgeStyle=orthogonalEdgeStyle;rounded=0;orthogonalLoop=1;jettySize=auto;html=1;entryX=0.5;entryY=0;entryDx=0;entryDy=0;" edge="1" parent="1" source="Y3manjMWAyvu6e0yyUNT-12" target="Y3manjMWAyvu6e0yyUNT-29">
          <mxGeometry relative="1" as="geometry" />
        </mxCell>
        <mxCell id="Y3manjMWAyvu6e0yyUNT-39" style="edgeStyle=orthogonalEdgeStyle;rounded=0;orthogonalLoop=1;jettySize=auto;html=1;exitX=1;exitY=0.5;exitDx=0;exitDy=0;" edge="1" parent="1" source="Y3manjMWAyvu6e0yyUNT-12" target="Y3manjMWAyvu6e0yyUNT-21">
          <mxGeometry relative="1" as="geometry" />
        </mxCell>
        <mxCell id="Y3manjMWAyvu6e0yyUNT-12" value="Користувач бачить на екрані: Додати Відгук/ Задати питання&amp;nbsp;" style="ellipse;whiteSpace=wrap;html=1;" vertex="1" parent="1">
          <mxGeometry x="345" y="570" width="150" height="110" as="geometry" />
        </mxCell>
        <mxCell id="Y3manjMWAyvu6e0yyUNT-14" value="Скролимо сторінку до низу.&lt;br&gt;Зупиняємося на відмітці Додати Відгук/ Задати питання" style="text;html=1;align=center;verticalAlign=middle;resizable=0;points=[];autosize=1;strokeColor=none;fillColor=none;" vertex="1" parent="1">
          <mxGeometry x="450" y="525" width="330" height="40" as="geometry" />
        </mxCell>
        <mxCell id="Y3manjMWAyvu6e0yyUNT-19" value="Натискаємо на кнопку Додати відгук" style="text;html=1;align=center;verticalAlign=middle;resizable=0;points=[];autosize=1;strokeColor=none;fillColor=none;" vertex="1" parent="1">
          <mxGeometry x="600" y="700" width="230" height="30" as="geometry" />
        </mxCell>
        <mxCell id="Y3manjMWAyvu6e0yyUNT-38" style="edgeStyle=orthogonalEdgeStyle;rounded=0;orthogonalLoop=1;jettySize=auto;html=1;entryX=0.5;entryY=0;entryDx=0;entryDy=0;" edge="1" parent="1" source="Y3manjMWAyvu6e0yyUNT-21" target="Y3manjMWAyvu6e0yyUNT-23">
          <mxGeometry relative="1" as="geometry" />
        </mxCell>
        <mxCell id="Y3manjMWAyvu6e0yyUNT-21" value="&lt;font style=&quot;font-size: 12px;&quot;&gt;Користувачеві на екрані відкривається форма Написання відгуку.&lt;br&gt;&lt;br&gt;&lt;/font&gt;" style="ellipse;whiteSpace=wrap;html=1;" vertex="1" parent="1">
          <mxGeometry x="495" y="780" width="180" height="110" as="geometry" />
        </mxCell>
        <mxCell id="Y3manjMWAyvu6e0yyUNT-23" value="End&lt;br&gt;Користувач бачить повідомлення:&lt;br&gt;Дякуємо за відгук" style="ellipse;whiteSpace=wrap;html=1;" vertex="1" parent="1">
          <mxGeometry x="487.5" y="1030" width="195" height="130" as="geometry" />
        </mxCell>
        <mxCell id="Y3manjMWAyvu6e0yyUNT-25" value="Після того як заповнили всі поля форми&amp;nbsp;&lt;br&gt;Натискаємо на кнопку Додати Відгук" style="text;html=1;align=center;verticalAlign=middle;resizable=0;points=[];autosize=1;strokeColor=none;fillColor=none;" vertex="1" parent="1">
          <mxGeometry x="600" y="900" width="250" height="40" as="geometry" />
        </mxCell>
        <mxCell id="Y3manjMWAyvu6e0yyUNT-37" style="edgeStyle=orthogonalEdgeStyle;rounded=0;orthogonalLoop=1;jettySize=auto;html=1;entryX=0.5;entryY=0;entryDx=0;entryDy=0;" edge="1" parent="1" source="Y3manjMWAyvu6e0yyUNT-29" target="Y3manjMWAyvu6e0yyUNT-32">
          <mxGeometry relative="1" as="geometry" />
        </mxCell>
        <mxCell id="Y3manjMWAyvu6e0yyUNT-29" value="&lt;font style=&quot;font-size: 12px;&quot;&gt;Користувачеві на екрані відкривається форма Задати питання.&lt;br&gt;&lt;br&gt;&lt;/font&gt;" style="ellipse;whiteSpace=wrap;html=1;" vertex="1" parent="1">
          <mxGeometry x="160" y="780" width="160" height="110" as="geometry" />
        </mxCell>
        <mxCell id="Y3manjMWAyvu6e0yyUNT-31" value="Після того як заповнили поле форми&amp;nbsp;&lt;br&gt;Натискаємо на кнопку Задати питання" style="text;html=1;align=center;verticalAlign=middle;resizable=0;points=[];autosize=1;strokeColor=none;fillColor=none;" vertex="1" parent="1">
          <mxGeometry x="-10" y="900" width="240" height="40" as="geometry" />
        </mxCell>
        <mxCell id="Y3manjMWAyvu6e0yyUNT-32" value="End&lt;br&gt;Користувач бачить повідомлення:&lt;br&gt;Дякуємо за питання" style="ellipse;whiteSpace=wrap;html=1;" vertex="1" parent="1">
          <mxGeometry x="142.5" y="1030" width="195" height="130" as="geometry" />
        </mxCell>
        <mxCell id="Y3manjMWAyvu6e0yyUNT-35" value="Натискаємо на кнопку Задати питання" style="text;html=1;align=center;verticalAlign=middle;resizable=0;points=[];autosize=1;strokeColor=none;fillColor=none;" vertex="1" parent="1">
          <mxGeometry x="-10" y="700" width="240" height="30" as="geometry" />
        </mxCell>
      </root>
    </mxGraphModel>
  </diagram>
</mxfile>
